Gait_lateral_29_analogdata.mot
version=1
nRows=43
nColumns=19
inDegrees=yes
endheader
time	1_ground_force_vx	1_ground_force_vy	1_ground_force_vz	1_ground_force_px	1_ground_force_py	1_ground_force_pz	1_ground_torque_x	1_ground_torque_y	1_ground_torque_z	2_ground_force_vx	2_ground_force_vy	2_ground_force_vz	2_ground_force_px	2_ground_force_py	2_ground_force_pz	2_ground_torque_x	2_ground_torque_y	2_ground_torque_z
0.220000	-50.393508	642.640442	-103.010307	-0.118095	0.000000	-0.331929	-0.050735	0.646989	-0.103707	0.000000	0.000000	-0.000000	-0.200000	0.000000	0.302000	0.000000	0.000000	-0.000000
0.221000	-51.640712	641.590698	-102.921837	-0.116924	0.000000	-0.330201	-0.055951	0.695143	-0.111513	0.000000	0.000000	-0.000000	-0.200000	0.000000	0.302000	0.000000	0.000000	-0.000000
0.222000	-51.284366	653.138123	-102.391022	-0.118424	0.000000	-0.330339	-0.082128	1.045946	-0.163971	0.000000	0.000000	-0.000000	-0.200000	0.000000	0.302000	0.000000	0.000000	-0.000000
0.223000	-51.818881	645.789734	-103.718056	-0.117705	0.000000	-0.330736	-0.069303	0.863681	-0.138713	0.000000	0.000000	-0.000000	-0.200000	0.000000	0.302000	0.000000	0.000000	-0.000000
0.224000	-52.798828	645.439819	-102.125611	-0.117236	0.000000	-0.329106	-0.062166	0.759955	-0.120245	0.000000	0.000000	-0.000000	-0.200000	0.000000	0.302000	0.000000	0.000000	-0.000000
0.225000	-52.086139	661.536255	-101.594796	-0.118713	0.000000	-0.328417	-0.075153	0.954498	-0.146586	0.000000	0.000000	-0.000000	-0.200000	0.000000	0.302000	0.000000	0.000000	-0.000000
0.226000	-51.640712	655.587585	-103.718056	-0.117743	0.000000	-0.328901	-0.039460	0.500948	-0.079253	0.000000	0.000000	-0.000000	-0.200000	0.000000	0.302000	0.000000	0.000000	-0.000000
0.227000	-53.244255	654.187927	-102.479493	-0.117253	0.000000	-0.328925	-0.015248	0.187345	-0.029348	0.000000	0.000000	-0.000000	-0.200000	0.000000	0.302000	0.000000	0.000000	-0.000000
0.228000	-52.531570	656.637329	-102.037140	-0.116595	0.000000	-0.328548	-0.021765	0.272056	-0.042276	0.000000	0.000000	-0.000000	-0.200000	0.000000	0.302000	0.000000	0.000000	-0.000000
0.229000	-51.729797	658.386963	-101.506325	-0.116638	0.000000	-0.328925	-0.044534	0.566806	-0.087387	0.000000	0.000000	-0.000000	-0.200000	0.000000	0.302000	0.000000	0.000000	-0.000000
0.230000	-51.195282	660.136597	-101.506325	-0.117388	0.000000	-0.328206	-0.033639	0.433757	-0.066697	0.000000	0.000000	-0.000000	-0.200000	0.000000	0.302000	0.000000	0.000000	-0.000000
0.231000	-50.749855	661.536255	-100.798576	-0.117086	0.000000	-0.327720	-0.026819	0.349586	-0.053267	0.000000	0.000000	-0.000000	-0.200000	0.000000	0.302000	0.000000	0.000000	-0.000000
0.232000	-49.680824	665.385437	-100.090820	-0.116305	0.000000	-0.327323	-0.007412	0.099268	-0.014932	0.000000	0.000000	-0.000000	-0.200000	0.000000	0.302000	0.000000	0.000000	-0.000000
0.233000	-48.968136	664.335632	-100.975509	-0.116480	0.000000	-0.328026	-0.032350	0.438878	-0.066707	0.000000	0.000000	-0.000000	-0.200000	0.000000	0.302000	0.000000	0.000000	-0.000000
0.234000	-48.789967	660.836426	-100.179291	-0.116070	0.000000	-0.327379	-0.057664	0.781036	-0.118401	0.000000	0.000000	-0.000000	-0.200000	0.000000	0.302000	0.000000	0.000000	-0.000000
0.235000	-46.651905	670.634277	-99.029190	-0.117401	0.000000	-0.326936	-0.074425	1.069882	-0.157984	0.000000	0.000000	-0.000000	-0.200000	0.000000	0.302000	0.000000	0.000000	-0.000000
0.236000	-46.206478	666.435181	-100.533164	-0.117190	0.000000	-0.326285	-0.078665	1.134579	-0.171154	0.000000	0.000000	-0.000000	-0.200000	0.000000	0.302000	0.000000	0.000000	-0.000000
0.237000	-45.850136	667.834900	-99.913879	-0.117354	0.000000	-0.325616	-0.081444	1.186282	-0.177478	0.000000	0.000000	-0.000000	-0.200000	0.000000	0.302000	0.000000	0.000000	-0.000000
0.238000	-43.801159	673.433655	-99.029189	-0.117633	0.000000	-0.325343	-0.086693	1.332882	-0.196002	0.000000	0.000000	-0.000000	-0.200000	0.000000	0.302000	0.000000	0.000000	-0.000000
0.239000	-41.930359	676.233032	-99.736945	-0.117862	0.000000	-0.324826	-0.083571	1.347798	-0.198785	0.000000	0.000000	-0.000000	-0.200000	0.000000	0.302000	0.000000	0.000000	-0.000000
0.240000	-43.622990	675.183228	-100.179290	-0.117793	0.000000	-0.324911	-0.069263	1.072035	-0.159062	0.000000	0.000000	-0.000000	-0.200000	0.000000	0.302000	0.000000	0.000000	-0.000000
0.241000	-41.217671	675.183228	-99.471533	-0.117488	0.000000	-0.324739	-0.090621	1.484450	-0.218697	0.000000	0.000000	-0.000000	-0.200000	0.000000	0.302000	0.000000	0.000000	-0.000000
0.242000	-40.059555	673.433655	-98.675314	-0.117541	0.000000	-0.324848	-0.075077	1.262099	-0.184930	0.000000	0.000000	-0.000000	-0.200000	0.000000	0.302000	0.000000	0.000000	-0.000000
0.243000	-38.723271	670.284363	-98.056029	-0.116800	0.000000	-0.324288	-0.080228	1.388721	-0.203156	0.000000	0.000000	-0.000000	-0.200000	0.000000	0.302000	0.000000	0.000000	-0.000000
0.244000	-37.743325	672.033936	-96.728987	-0.116721	0.000000	-0.324006	-0.071019	1.264512	-0.182007	0.000000	0.000000	-0.000000	-0.200000	0.000000	0.302000	0.000000	0.000000	-0.000000
0.245000	-35.070752	671.684021	-96.728986	-0.116603	0.000000	-0.324107	-0.084197	1.612569	-0.232225	0.000000	0.000000	-0.000000	-0.200000	0.000000	0.302000	0.000000	0.000000	-0.000000
0.246000	-34.981667	673.083740	-96.286642	-0.116976	0.000000	-0.324385	-0.075547	1.453606	-0.207943	0.000000	0.000000	-0.000000	-0.200000	0.000000	0.302000	0.000000	0.000000	-0.000000
0.247000	-35.338009	667.484985	-96.021230	-0.116652	0.000000	-0.324319	-0.079106	1.494208	-0.214950	0.000000	0.000000	-0.000000	-0.200000	0.000000	0.302000	0.000000	0.000000	-0.000000
0.248000	-34.001721	666.435181	-94.605726	-0.117035	0.000000	-0.323472	-0.085327	1.672422	-0.237413	0.000000	0.000000	-0.000000	-0.200000	0.000000	0.302000	0.000000	0.000000	-0.000000
0.249000	-32.487264	670.284363	-93.013280	-0.117354	0.000000	-0.322921	-0.081532	1.682181	-0.233431	0.000000	0.000000	-0.000000	-0.200000	0.000000	0.302000	0.000000	0.000000	-0.000000
0.250000	-30.349204	673.433655	-93.809499	-0.117574	0.000000	-0.321988	-0.076415	1.695608	-0.236199	0.000000	0.000000	-0.000000	-0.200000	0.000000	0.302000	0.000000	0.000000	-0.000000
0.251000	-32.398179	672.383850	-93.809499	-0.117692	0.000000	-0.321952	-0.074722	1.550755	-0.216358	0.000000	0.000000	-0.000000	-0.200000	0.000000	0.302000	0.000000	0.000000	-0.000000
0.252000	-32.487264	672.733765	-93.721036	-0.118024	0.000000	-0.320980	-0.070956	1.469330	-0.204698	0.000000	0.000000	-0.000000	-0.200000	0.000000	0.302000	0.000000	0.000000	-0.000000
0.253000	-32.309095	676.932861	-92.305524	-0.117821	0.000000	-0.321057	-0.073940	1.549182	-0.211244	0.000000	0.000000	-0.000000	-0.200000	0.000000	0.302000	0.000000	0.000000	-0.000000
0.254000	-32.576349	674.833313	-92.305524	-0.117624	0.000000	-0.321190	-0.073427	1.521064	-0.208055	0.000000	0.000000	-0.000000	-0.200000	0.000000	0.302000	0.000000	0.000000	-0.000000
0.255000	-32.576349	669.234558	-91.509305	-0.117377	0.000000	-0.321827	-0.059669	1.225823	-0.167616	0.000000	0.000000	-0.000000	-0.200000	0.000000	0.302000	0.000000	0.000000	-0.000000
0.256000	-31.596407	666.085266	-89.297574	-0.116520	0.000000	-0.320404	-0.053039	1.118122	-0.149899	0.000000	0.000000	-0.000000	-0.200000	0.000000	0.302000	0.000000	0.000000	-0.000000
0.257000	-31.150978	673.083740	-88.324407	-0.117142	0.000000	-0.320922	-0.085389	1.845005	-0.242108	0.000000	0.000000	-0.000000	-0.200000	0.000000	0.302000	0.000000	0.000000	-0.000000
0.258000	-30.349205	664.335632	-88.943692	-0.118011	0.000000	-0.320629	-0.074701	1.635173	-0.218923	0.000000	0.000000	-0.000000	-0.200000	0.000000	0.302000	0.000000	0.000000	-0.000000
0.259000	-31.507320	665.735352	-87.174314	-0.117107	0.000000	-0.318910	-0.060741	1.283421	-0.168057	0.000000	0.000000	-0.000000	-0.200000	0.000000	0.302000	0.000000	0.000000	-0.000000
0.260000	-29.725605	667.484985	-86.378087	-0.117100	0.000000	-0.319477	-0.059152	1.328262	-0.171888	0.000000	0.000000	-0.000000	-0.200000	0.000000	0.302000	0.000000	0.000000	-0.000000
0.261000	-29.992863	669.934387	-84.608701	-0.117692	0.000000	-0.319539	-0.057088	1.275137	-0.161042	0.000000	0.000000	-0.000000	-0.200000	0.000000	0.302000	0.000000	0.000000	-0.000000
0.262000	-28.834748	665.735352	-85.316456	-0.117062	0.000000	-0.319020	-0.042299	0.976601	-0.125155	0.169464	0.000000	0.888437	-0.208378	0.000000	0.368466	0.004041	-0.153692	0.021187
